<svg xmlns="http://www.w3.org/2000/svg" width="29.995" height="29.995" viewBox="0 0 29.995 29.995">
  <path id="fa-phone" d="M519.931,2345.247q-.128-.383-1.619-1.129-.405-.234-1.15-.639t-1.353-.746q-.607-.341-1.14-.66-.085-.064-.533-.373a6.007,6.007,0,0,0-.756-.458,1.391,1.391,0,0,0-.607-.149,1.767,1.767,0,0,0-1.065.607,10.377,10.377,0,0,0-1.172,1.321,12.873,12.873,0,0,1-1.129,1.321,1.623,1.623,0,0,1-.98.607,1.439,1.439,0,0,1-.479-.106,4.629,4.629,0,0,1-.437-.181q-.149-.075-.511-.3t-.4-.245a21.112,21.112,0,0,1-8.713-8.713q-.021-.042-.245-.4t-.3-.511a4.507,4.507,0,0,1-.181-.436,1.434,1.434,0,0,1-.107-.479,1.623,1.623,0,0,1,.607-.98,12.861,12.861,0,0,1,1.321-1.129,10.394,10.394,0,0,0,1.321-1.172,1.767,1.767,0,0,0,.607-1.065,1.394,1.394,0,0,0-.149-.607,6.045,6.045,0,0,0-.458-.756q-.309-.447-.373-.532-.319-.532-.66-1.14t-.746-1.353q-.4-.745-.639-1.15-.746-1.491-1.129-1.619a1.191,1.191,0,0,0-.447-.064,7.045,7.045,0,0,0-1.5.213,8.528,8.528,0,0,0-1.459.447,5.711,5.711,0,0,0-2.258,2.6,7.9,7.9,0,0,0-1.012,5.081,9.2,9.2,0,0,0,.266,1.225q.192.682.309,1.012t.437,1.183q.319.852.383,1.044a19.266,19.266,0,0,0,1.768,3.728,35.778,35.778,0,0,0,10.225,10.226,19.262,19.262,0,0,0,3.728,1.768q.192.064,1.044.384t1.182.437q.33.117,1.012.309a9.168,9.168,0,0,0,1.225.266,7.893,7.893,0,0,0,5.081-1.012,5.71,5.71,0,0,0,2.6-2.258,8.476,8.476,0,0,0,.447-1.459,7.047,7.047,0,0,0,.213-1.5,1.2,1.2,0,0,0-.064-.448Z" transform="translate(-490 -2322.005)" fill="#fff"/>
</svg>
