<svg xmlns="http://www.w3.org/2000/svg" width="59.516" height="60.113" viewBox="0 0 59.516 60.113">
  <path id="soybean_копия" data-name="soybean копия" d="M490.121,1796.09c.084-16.774,13.162-30.065,29.771-30.081a29.813,29.813,0,0,1,29.743,30.14c-.176,16.947-13.315,29.87-29.615,29.972h-.184A29.967,29.967,0,0,1,490.121,1796.09Zm2.133-.647c-.314,15.149,12.24,28.706,27.607,28.4a27.832,27.832,0,0,0,.14-55.659h-.187C504.951,1768.18,492.562,1780.636,492.254,1795.442Zm40.922,18.689a5.149,5.149,0,0,0-2.873-.443,9.5,9.5,0,0,1-11.113-6.189,3.524,3.524,0,0,0-2.422-2.47,8.506,8.506,0,0,1-5.8-5.92,3.31,3.31,0,0,0-2.326-2.336c-4.994-1.865-7.225-6.213-6.145-11.449a3.985,3.985,0,0,0-.444-2.587,2.909,2.909,0,0,1,.614-3.967c1.129-1.126,2.283-1.7,3.908-.768a4.049,4.049,0,0,0,2.714.45,9.638,9.638,0,0,1,11.353,6.305,4.048,4.048,0,0,0,2.184,2.194,9.444,9.444,0,0,1,5.948,6.061,3.211,3.211,0,0,0,2.327,2.306,9.323,9.323,0,0,1,6.429,9.036,13.6,13.6,0,0,0-.365,2.435,6.373,6.373,0,0,0,.492,2.614,2.9,2.9,0,0,1-.433,3.7,3.192,3.192,0,0,1-4.046,1.025Zm1.557-1.724,1.4-1.133-.723-.188c-.144-1.5-.673-3.1-.359-4.5.963-4.3-.964-8.024-5.126-9.272a4.171,4.171,0,0,1-3.081-3.075,7.043,7.043,0,0,0-5.025-5.189,4.76,4.76,0,0,1-3.29-3.353c-1.288-3.958-4.655-5.968-8.636-5.064a5.075,5.075,0,0,1-4.347-.491,1.237,1.237,0,0,0-1.167.194c-.258.242-.468.949-.311,1.164,1.092,1.5.922,3.035.541,4.729a6.964,6.964,0,0,0,4.742,8.361,5.178,5.178,0,0,1,3.709,3.829,6.245,6.245,0,0,0,4.391,4.481,5.2,5.2,0,0,1,3.81,3.722,7.021,7.021,0,0,0,8.473,4.838,8.606,8.606,0,0,1,1.919-.254A4.372,4.372,0,0,1,534.733,1812.408Zm-6.749-2.971a4.983,4.983,0,0,1-5.033-5.17,4.889,4.889,0,0,1,5.061-5.119,5.147,5.147,0,0,1,5.147,5.144,5.237,5.237,0,0,1-5.165,5.144Zm-2.924-5.286a3.2,3.2,0,0,0,2.806,3.093,2.947,2.947,0,0,0,2.957-2.868,3,3,0,0,0-2.739-3.1h-.077A3.251,3.251,0,0,0,525.06,1804.152Zm-10.274-8.146a4.964,4.964,0,0,1,5.144-5.087,5.04,5.04,0,0,1,5.04,5.241,5.183,5.183,0,0,1-5.109,5.06h-.019A5.052,5.052,0,0,1,514.786,1796.006Zm4.986-2.925a2.974,2.974,0,0,0,.151,5.943,3.124,3.124,0,0,0,2.786-3.064,2.964,2.964,0,0,0-2.853-2.88Zm-7.986-.018a5.035,5.035,0,0,1-5.048-5.224,5.106,5.106,0,1,1,5.073,5.224Zm-2.887-5.136a2.916,2.916,0,1,0,2.94-2.948h-.046A3.142,3.142,0,0,0,508.9,1787.927Z" transform="translate(-490.121 -1766.009)" fill="#00a651"/>
</svg>
