<svg xmlns="http://www.w3.org/2000/svg" width="36.955" height="34.356" viewBox="0 0 36.955 34.356">
  <g id="quantity" transform="translate(-1030.045 -7.119)">
    <g id="semen">
      <g id="semen-2" data-name="semen">
        <path id="Path_1" data-name="Path 1" d="M1051.938,25.64a13.051,13.051,0,0,1,2.934,4.734,7.427,7.427,0,0,1-1.5,7.766,8.992,8.992,0,0,1-4.7,3.11,9.2,9.2,0,0,1-7.2-1.5,22.867,22.867,0,0,1-7.882-9.031,29.5,29.5,0,0,1-3.544-13.1c-.031-.833.217-1.048,1.166-1.027a30.674,30.674,0,0,1,20.725,9.039Zm-13.089,11.032c.535.479.995.945,1.511,1.34a19.1,19.1,0,0,0,1.918,1.3c3.141,1.84,6.379,2,9.245-.438a7.413,7.413,0,0,0,3.029-5.646A9.7,9.7,0,0,0,1052,26.977a23.712,23.712,0,0,0-7.545-5.983,29.745,29.745,0,0,0-12.337-3.563c-1.1-.061-1.268.156-1.227,1.212a24.531,24.531,0,0,0,1.368,7.005A29.37,29.37,0,0,0,1038.849,36.672Z"/>
        <path id="Path_2" data-name="Path 2" d="M1039.459,36.117a28.227,28.227,0,0,1-7.49-15.429c-.072-.472-.149-.944-.186-1.42-.065-.839.127-1.094.985-.953a46.957,46.957,0,0,1,5.841,1.157,26.29,26.29,0,0,1,12.238,7.422,9.724,9.724,0,0,1,2.866,5.9,5.911,5.911,0,0,1-1.319,3.995,6.88,6.88,0,0,1-6.806,2.965,11.385,11.385,0,0,1-4.57-2.286C1040.489,37.048,1040,36.584,1039.459,36.117Zm11.175.859c-.749-2.384-15.7-16.87-17.387-17.013A118.552,118.552,0,0,0,1050.634,36.977Zm-.625.861c-7.6-4.041-13.044-10.084-17.428-17.2a6.964,6.964,0,0,0,.354,1.034,34.986,34.986,0,0,0,8.709,11.531,20.827,20.827,0,0,0,5.533,3.676C1048.087,37.269,1049.062,37.521,1050.008,37.837Zm-15.333-18.585c6.973,4.331,12.875,9.63,16.85,16.84a12.478,12.478,0,0,0-.557-1.973,22.144,22.144,0,0,0-4.891-7.053,37.627,37.627,0,0,0-9.716-7.105C1035.824,19.679,1035.239,19.486,1034.676,19.252Z"/>
      </g>
      <path id="Color_Overlay" data-name="Color Overlay" d="M1041.473,39.756a22.86,22.86,0,0,1-7.881-9.031,29.5,29.5,0,0,1-3.544-13.1c-.031-.833.218-1.049,1.165-1.027a30.669,30.669,0,0,1,20.725,9.04,13.045,13.045,0,0,1,2.934,4.734,7.428,7.428,0,0,1-1.5,7.766,8.99,8.99,0,0,1-4.7,3.11,8.138,8.138,0,0,1-1.885.224A10.067,10.067,0,0,1,1041.473,39.756Zm-10.579-21.113a24.522,24.522,0,0,0,1.368,7,29.35,29.35,0,0,0,6.588,11.024c.535.48.995.946,1.511,1.34a19.175,19.175,0,0,0,1.918,1.3c3.141,1.84,6.379,2,9.245-.438a7.411,7.411,0,0,0,3.029-5.646,9.7,9.7,0,0,0-2.551-6.25,23.707,23.707,0,0,0-7.545-5.983,29.744,29.744,0,0,0-12.337-3.563c-.11-.006-.21-.01-.3-.01C1030.992,17.42,1030.856,17.691,1030.893,18.643Zm14.694,21.111a11.4,11.4,0,0,1-4.57-2.286c-.529-.42-1.021-.884-1.559-1.351a28.222,28.222,0,0,1-7.489-15.43c-.073-.472-.149-.944-.186-1.419-.065-.839.127-1.094.985-.953a47.022,47.022,0,0,1,5.84,1.156,26.291,26.291,0,0,1,12.238,7.422,9.724,9.724,0,0,1,2.866,5.9,5.912,5.912,0,0,1-1.319,4,7.234,7.234,0,0,1-5.634,3.1A5.273,5.273,0,0,1,1045.588,39.754Zm-12.653-18.086a35,35,0,0,0,8.708,11.531,20.816,20.816,0,0,0,5.533,3.676c.912.394,1.886.646,2.832.963-7.6-4.042-13.045-10.084-17.428-17.2A6.9,6.9,0,0,0,1032.935,21.668Zm17.7,15.308c-.749-2.384-15.7-16.871-17.387-17.013A118.548,118.548,0,0,0,1050.634,36.977Zm.892-.885a12.441,12.441,0,0,0-.558-1.973,22.137,22.137,0,0,0-4.891-7.052,37.614,37.614,0,0,0-9.716-7.106c-.538-.282-1.123-.475-1.687-.709C1041.648,23.583,1047.55,28.883,1051.526,36.092Z" fill="#f7f7f7"/>
    </g>
    <circle id="Эллипс_2" data-name="Эллипс 2" cx="10" cy="10" r="10" transform="translate(1047 8)" fill="#ff4200"/>
    <text id="_3" data-name="3" transform="translate(1051.887 24.119)" fill="#fff" font-size="16" font-family="SegoeUI, Segoe UI"><tspan x="0" y="0">3</tspan></text>
  </g>
</svg>
