<svg xmlns="http://www.w3.org/2000/svg" width="59.502" height="60.061" viewBox="0 0 59.502 60.061">
  <path id="corn_копия" data-name="corn копия" d="M490.378,2036.585c.2-16.485,13.353-29.959,29.681-29.858,16.786.1,29.749,13.233,29.819,30.234.069,16.722-13.774,30.013-29.684,29.821-.177,0-.354.005-.53.005C503.718,2066.788,490.178,2053.087,490.378,2036.585Zm29.824-27.624a27.8,27.8,0,0,0-27.659,27.62c-.034,15.41,12.3,28.009,27.454,28.049,15.183.041,27.589-12.486,27.769-27.784.173-14.654-12.317-27.886-27.34-27.887ZM507.029,2046.6c-.244-5.142-.047-10.306-.047-15.459,0-2.725,0-2.723,2.668-2.8.338-.009.677-.057,1.207-.1,0-1.656-.008-3.239,0-4.821a9.338,9.338,0,0,1,18.673-.09c.026,3.6.005,7.2.005,10.923,3.809.212,3.847.212,3.8,3.948a95.02,95.02,0,0,1-.365,11.323,11.157,11.157,0,0,1-9.041,9.946,15.6,15.6,0,0,1-3.248.347A13.453,13.453,0,0,1,507.029,2046.6Zm2.123-12.432c0,.3-.005.592,0,.888.085,4.319-.154,8.675.334,12.948a10.827,10.827,0,0,0,12.2,9.319c0-5.371.231-10.649-.065-15.9a11.22,11.22,0,0,0-8.19-10.41,12.389,12.389,0,0,0-2.844-.587C509.27,2030.429,509.15,2031.41,509.152,2034.168Zm20.414,3.611c-.072,2.955-.069,5.912-.034,8.869a9.078,9.078,0,0,1-4.656,8.355c-.558.344-.855,1.122-1.272,1.7l.489.368c3.268-1.083,5.836-3.288,6.354-6.654.691-4.5.552-9.133.769-13.71l-.905-.372C530.051,2036.817,529.578,2037.292,529.565,2037.779ZM513.041,2022.8c-.157,1.878-.026,3.78-.026,5.688.365.143.629.256.9.351,6.746,2.393,9.927,6.936,9.93,14.184,0,3.192,0,6.384,0,9.883a6.628,6.628,0,0,0,3.519-5.915q.069-11.825.007-23.649a6.781,6.781,0,0,0-5.042-6.624,8.414,8.414,0,0,0-2.092-.268A6.976,6.976,0,0,0,513.041,2022.8Zm10.345,9.041c-.6-.029-1.172-.642-1.756-1l1.773-1.588,1.489,1.565c-.495.362-1,1.026-1.481,1.026Zm-7.874-4.555c.638-.355,1.26-.94,1.92-.989.465-.034.983.661,1.477,1.03l-1.764,1.693Zm6.055-.995c.624-.386,1.222-1,1.88-1.077.437-.05.958.676,1.443,1.054l-1.419,1.43Zm-4.231-2.448c-.629-.03-1.228-.718-1.839-1.122l1.7-1.61,1.7,1.559c-.516.415-1.047,1.174-1.544,1.174Zm4.274-2.2c.561-.376,1.112-1.03,1.684-1.047.522-.016,1.065.656,1.6,1.025l-1.763,1.48Z" transform="translate(-490.375 -2006.727)" fill="#939393"/>
</svg>
