<svg xmlns="http://www.w3.org/2000/svg" width="59.41" height="60.158" viewBox="0 0 59.41 60.158">
  <path id="sesame_копия" data-name="sesame копия" d="M490.577,1876.27a29.707,29.707,0,1,1,29.475,30.1h-.117C503.777,1906.369,490.569,1892.769,490.577,1876.27Zm57.262-.1a27.57,27.57,0,1,0-27.637,27.873C535.383,1904.295,547.835,1891.634,547.838,1876.17Zm-22.756,12.962c-2.6-2.539-2.425-7.279.482-10.02,2.486-2.342,5.66-3.292,8.881-3.917,1.885-.365,3.018,1.277,2.906,4.99a13.4,13.4,0,0,1-2.787,7.792,7.281,7.281,0,0,1-5.528,2.711A5.6,5.6,0,0,1,525.083,1889.132Zm1.477-7.722a5.072,5.072,0,0,0-.948,1.875c-.908,2.962.909,5.224,3.938,5.009a4.456,4.456,0,0,0,4.073-2.914c.884-2.39,1.347-4.94,1.991-7.421l-.651-.474C531.775,1877.884,528.824,1878.88,526.559,1881.41Zm-21.586,4.905a68.848,68.848,0,0,1-2.163-6.838c.07-3.853,1.553-5.219,5.043-3.953a25.378,25.378,0,0,1,7.2,3.755c2.453,1.966,2.845,4.963,1.657,7.925a5.009,5.009,0,0,1-4.8,3.265l-.235,0A6.741,6.741,0,0,1,504.974,1886.315Zm3.3.73a4.2,4.2,0,0,0,4.717.94,3.243,3.243,0,0,0,2.05-3.576,6.877,6.877,0,0,0-1.342-3.34c-2.1-2.417-5-3.265-8.448-3.788C505.517,1881.013,505.595,1884.46,508.273,1887.044Zm9.632-9.607c-3.02-1.351-4.83-5.513-3.544-9.069a37.1,37.1,0,0,1,3.606-6.831,2.728,2.728,0,0,1,4.154-.471c2.407,2.808,4.19,5.956,4.407,9.074-.022,4.62-3.073,7.781-6.4,7.781A5.417,5.417,0,0,1,517.905,1877.438Zm-1.656-6.156a4.773,4.773,0,0,0,3.623,4.432c1.672.242,3.5-1.212,4.177-3.331.88-2.739-1.04-7.634-3.985-9.895C518.069,1865.111,516.132,1867.732,516.249,1871.282Z" transform="translate(-490.577 -1846.211)" fill="#49743f"/>
</svg>
