<svg xmlns="http://www.w3.org/2000/svg" width="59.402" height="59.929" viewBox="0 0 59.402 59.929">
  <path id="wheat_копия" data-name="wheat копия" d="M490,1956.318a29.7,29.7,0,1,1,59.4.5c-.016,16.2-12.876,29.493-28.76,29.765-.185,0-.371,0-.554,0A29.868,29.868,0,0,1,490,1956.318Zm2.163.1c.134,15.129,11.53,28.116,27.5,28.04,15.6-.076,27.3-12.3,27.579-27.471a27.67,27.67,0,0,0-27.411-28.161h-.147A27.818,27.818,0,0,0,492.161,1956.417Zm22.675,21.3c-4.649-1.571-7-5.265-7.52-10.158-.043-.41-.08-.823-.152-1.229-.346-1.966.253-2.687,2.269-2.716.284,0,.569,0,.679,0a60.089,60.089,0,0,1-1.416-6.382c-.283-2.434.283-2.866,2.459-2.832a65.33,65.33,0,0,1-1.081-6.777c-.169-2.827.841-3.428,3.572-2.5.494.168.979.365,1.688.631-1.05-3.879.16-7.021,2.669-9.772,1.439-1.578,2.272-1.561,3.692.089,2.367,2.749,3.43,5.844,2.343,9.586,1.179-.328,2.192-.7,3.238-.879,1.285-.224,2.146.452,2.051,1.749-.191,2.592-.574,5.169-.884,7.8.391.159,1.666.28,1.982.9a6.575,6.575,0,0,1,.229,3.241,11.192,11.192,0,0,1-.628,2.566c-.266.832-.629,1.632-1,2.585.684,0,1.418-.226,1.788.049.661.491,1.586,1.312,1.552,1.948-.205,3.785-1.083,7.368-4.158,9.971a12.287,12.287,0,0,1-8.145,3.052A16.342,16.342,0,0,1,514.836,1977.716Zm-5.376-11.6c-.506,5.449,4.729,10.656,8.875,9.829.461-5.523-3.913-9.849-8.348-9.849Q509.723,1966.1,509.46,1966.116Zm11.513,9.8c4.583.849,9.6-4.72,8.934-9.778q-.119,0-.237,0C524.85,1966.132,520.777,1970.958,520.973,1975.914Zm-1.236-5.165,1.458-2.513h-2.977Zm1.373-5.02c3.159.229,7.612-3.457,7.326-8.816h0C524.3,1956.913,520.393,1961.425,521.111,1965.729Zm-10.135-8.647c.37,5.237,3.327,8.691,7.37,8.608.74-3.284-2.445-8.639-6.79-8.639A5.332,5.332,0,0,0,510.976,1957.082Zm7.368-.906c.659-4.511-2.091-8.549-6-8.814C511.433,1951.842,515.453,1956.228,518.344,1956.175Zm2.69-.023c3.678-.226,6.573-4.374,6.083-8.859C522.994,1947.932,520.542,1951.561,521.034,1956.152Zm-1.372-8.133c3.66-2.9,3.166-8.371.032-10.365C516.354,1940.865,516.34,1945.461,519.663,1948.019Z" transform="translate(-489.998 -1926.655)" fill="#aba000"/>
</svg>
